<?xml version="1.0" encoding="UTF-8" standalone="no"?>
<!-- Created with Inkscape (http://www.inkscape.org/) -->

<svg
   width="83.861992mm"
   height="39.935257mm"
   viewBox="0 0 91.576192 43.608775"
   version="1.1"
   id="svg1"
   xml:space="preserve"
   inkscape:version="1.4 (e7c3feb1, 2024-10-09)"
   sodipodi:docname="angel.svg"
   xmlns:inkscape="http://www.inkscape.org/namespaces/inkscape"
   xmlns:sodipodi="http://sodipodi.sourceforge.net/DTD/sodipodi-0.dtd"
   xmlns="http://www.w3.org/2000/svg"
   xmlns:svg="http://www.w3.org/2000/svg"><sodipodi:namedview
     id="namedview1"
     pagecolor="#ffffff"
     bordercolor="#000000"
     borderopacity="0.25"
     inkscape:showpageshadow="2"
     inkscape:pageopacity="0.0"
     inkscape:pagecheckerboard="0"
     inkscape:deskcolor="#d1d1d1"
     inkscape:document-units="mm"
     inkscape:zoom="0.52410024"
     inkscape:cx="181.26303"
     inkscape:cy="-307.19314"
     inkscape:window-width="1616"
     inkscape:window-height="1263"
     inkscape:window-x="896"
     inkscape:window-y="47"
     inkscape:window-maximized="0"
     inkscape:current-layer="layer1"><inkscape:page
       x="0"
       y="0"
       width="91.576195"
       height="43.608776"
       id="page2"
       margin="0"
       bleed="0" /></sodipodi:namedview><defs
     id="defs1" /><g
     inkscape:label="Layer 1"
     inkscape:groupmode="layer"
     id="layer1"
     transform="translate(-84.031766,-139.2588)"><path
       style="fill:none;fill-opacity:1;stroke:#001a72;stroke-width:2.078;stroke-linecap:round;stroke-linejoin:round;stroke-dasharray:none;stroke-opacity:1"
       d="m 155.9964,159.92308 c 6.26431,-27.94922 13.40032,-10.4692 6.24699,0 12.56297,-11.97943 19.25437,-1.93498 1.42789,8.92428 14.55829,-5.68292 10.4383,9.66229 -7.4964,9.28126 z"
       id="path7"
       sodipodi:nodetypes="ccccc" /><path
       style="fill:none;fill-opacity:1;stroke:#001a72;stroke-width:2.078;stroke-linecap:round;stroke-linejoin:round;stroke-dasharray:none;stroke-opacity:1"
       d="m 103.64332,159.36162 c -6.264303,-27.94922 -13.400313,-10.4692 -6.246983,0 -12.56297,-11.97943 -19.25437,-1.93498 -1.42789,8.92428 -14.55829,-5.68292 -10.4383,9.66229 7.496393,9.28126 z"
       id="path7-9"
       sodipodi:nodetypes="ccccc" /><ellipse
       style="fill:none;fill-opacity:1;stroke:#001a72;stroke-width:2.078;stroke-linecap:round;stroke-linejoin:round;stroke-dasharray:none;stroke-opacity:1"
       id="path1"
       cy="150.10864"
       cx="129.71835"
       rx="22.840286"
       ry="9.8108387" /><g
       style="fill:none"
       id="g1"
       transform="matrix(0.84506614,0,0,0.84506614,96.224581,132.16361)"><path
         d="m 76,60 c 2.2091,0 4.0207,-1.7953 3.8001,-3.9934 C 79.4105,52.1237 78.454,48.3113 76.9552,44.6927 74.945,39.8396 71.9986,35.4301 68.2842,31.7157 64.5699,28.0014 60.1603,25.055 55.3073,23.0448 50.4543,21.0346 45.2528,20 40,20 34.7471,20 29.5457,21.0346 24.6926,23.0448 19.8396,25.055 15.43,28.0014 11.7157,31.7157 8.00135,35.4301 5.05497,39.8396 3.04479,44.6927 1.54589,48.3113 0.589402,52.1237 0.199802,56.0066 -0.0207466,58.2047 1.79083,60 3.99997,60 H 40 Z"
         fill="#82cab2"
         id="path1-0" /><path
         d="m 35.8206,42.9854 c 0,-0.394 -0.0933,-0.7845 -0.2742,-1.1485 -0.1809,-0.3638 -0.4463,-0.6942 -0.7804,-0.9726 -0.3342,-0.2785 -0.7306,-0.4997 -1.1672,-0.6504 -0.4368,-0.1508 -0.9054,-0.2285 -1.3782,-0.2285 -0.4727,0 -0.9413,0.0777 -1.3781,0.2285 -0.4366,0.1507 -0.833,0.3719 -1.1672,0.6504 -0.3341,0.2784 -0.5995,0.6088 -0.7804,0.9726 -0.181,0.364 -0.2743,0.7545 -0.2743,1.1485 0,0.5522 -0.5372,1 -1.2,1 -0.6627,0 -1.2,-0.4478 -1.2,-1 0,-0.6566 0.1556,-1.3066 0.4571,-1.9131 0.3015,-0.6067 0.7436,-1.1578 1.3008,-1.6221 0.5571,-0.4643 1.2185,-0.8327 1.9464,-1.084 0.7279,-0.2512 1.5079,-0.3808 2.2957,-0.3808 0.7879,0 1.5679,0.1296 2.2957,0.3808 0.728,0.2513 1.3894,0.6197 1.9465,1.084 0.5572,0.4643 0.9993,1.0154 1.3008,1.6221 0.3015,0.6065 0.457,1.2565 0.457,1.9131 0,0.5522 -0.5372,1 -1.2,1 -0.6627,0 -1.2,-0.4478 -1.2,-1 z"
         fill="#001a72"
         id="path2" /><path
         d="m 50.7792,42.9854 c 0,-0.394 -0.0777,-0.7845 -0.2285,-1.1485 -0.1507,-0.3638 -0.3719,-0.6942 -0.6504,-0.9726 -0.2784,-0.2785 -0.6088,-0.4997 -0.9726,-0.6504 -0.364,-0.1508 -0.7545,-0.2285 -1.1485,-0.2285 -0.3939,0 -0.7844,0.0777 -1.1484,0.2285 -0.3638,0.1507 -0.6942,0.3719 -0.9727,0.6504 -0.2784,0.2784 -0.4996,0.6088 -0.6503,0.9726 -0.1508,0.364 -0.2286,0.7545 -0.2286,1.1485 0,0.5522 -0.4477,1 -1,1 -0.5522,0 -1,-0.4478 -1,-1 0,-0.6566 0.1297,-1.3066 0.3809,-1.9131 0.2513,-0.6067 0.6197,-1.1578 1.084,-1.6221 0.4643,-0.4643 1.0154,-0.8327 1.622,-1.084 0.6066,-0.2512 1.2566,-0.3808 1.9131,-0.3808 0.6566,0 1.3065,0.1296 1.9131,0.3808 0.6066,0.2513 1.1578,0.6197 1.6221,1.084 0.4643,0.4643 0.8327,1.0154 1.084,1.6221 0.2512,0.6065 0.3808,1.2565 0.3808,1.9131 0,0.5522 -0.4477,1 -1,1 -0.5522,0 -1,-0.4478 -1,-1 z"
         fill="#001a72"
         id="path3" /><path
         d="m 53.7792,37.8687 c 0,-0.394 -0.0777,-0.7845 -0.2285,-1.1485 -0.1507,-0.3638 -0.3719,-0.6942 -0.6504,-0.9726 -0.2784,-0.2785 -0.6088,-0.4997 -0.9726,-0.6504 -0.364,-0.1508 -0.7545,-0.2285 -1.1485,-0.2285 -0.5522,0 -1,-0.4478 -1,-1 0,-0.5523 0.4478,-1 1,-1 0.6566,0 1.3065,0.1296 1.9131,0.3808 0.6066,0.2513 1.1578,0.6197 1.6221,1.084 0.4643,0.4643 0.8327,1.0154 1.084,1.6221 0.2512,0.6065 0.3808,1.2565 0.3808,1.9131 0,0.5522 -0.4477,1 -1,1 -0.5522,0 -1,-0.4478 -1,-1 z"
         fill="#001a72"
         id="path4" /><path
         d="m 26.2206,37.8687 c 0,-0.394 0.0778,-0.7845 0.2286,-1.1485 0.1507,-0.3638 0.3719,-0.6942 0.6503,-0.9726 0.2785,-0.2785 0.6089,-0.4997 0.9727,-0.6504 0.364,-0.1508 0.7545,-0.2285 1.1484,-0.2285 0.5523,0 1,-0.4478 1,-1 0,-0.5523 -0.4477,-1 -1,-1 -0.6565,0 -1.3065,0.1296 -1.913,0.3808 -0.6067,0.2513 -1.1578,0.6197 -1.6221,1.084 -0.4643,0.4643 -0.8327,1.0154 -1.084,1.6221 -0.2512,0.6065 -0.3809,1.2565 -0.3809,1.9131 0,0.5522 0.4478,1 1,1 0.5523,0 1,-0.4478 1,-1 z"
         fill="#001a72"
         id="path5" /><path
         d="m 36.3999,48.1313 c 0,0.394 0.0933,0.7845 0.2743,1.1485 0.1809,0.3638 0.4463,0.6942 0.7804,0.9726 0.3342,0.2785 0.7306,0.4997 1.1672,0.6504 0.4368,0.1508 0.9054,0.2285 1.3781,0.2285 0.4728,0 0.9414,-0.0777 1.3782,-0.2285 0.4366,-0.1507 0.833,-0.3719 1.1672,-0.6504 0.3341,-0.2784 0.5995,-0.6088 0.7804,-0.9726 0.1809,-0.364 0.2742,-0.7545 0.2742,-1.1485 0,-0.5522 0.5373,-1 1.2,-1 0.6628,0 1.2,0.4478 1.2,1 0,0.6566 -0.1555,1.3066 -0.457,1.9131 -0.3015,0.6067 -0.7436,1.1578 -1.3008,1.6221 -0.5571,0.4643 -1.2185,0.8327 -1.9465,1.084 -0.7278,0.2512 -1.5078,0.3808 -2.2957,0.3808 -0.7878,0 -1.5678,-0.1296 -2.2957,-0.3808 -0.7279,-0.2513 -1.3893,-0.6197 -1.9464,-1.084 -0.5572,-0.4643 -0.9993,-1.0154 -1.3008,-1.6221 -0.3015,-0.6065 -0.4571,-1.2565 -0.4571,-1.9131 0,-0.5522 0.5373,-1 1.2,-1 0.6628,0 1.2,0.4478 1.2,1 z"
         fill="#001a72"
         id="path6" /></g></g></svg>
