<svg width="94" height="94" viewBox="0 0 94 94" fill="none" xmlns="http://www.w3.org/2000/svg">
<g filter="url(#filter0_d_2121_6187)">
<path d="M46.6321 28.7986C47.7167 30.2886 49.8757 30.4576 51.1789 29.1544L78.4545 1.87876C79.6261 0.70719 81.5256 0.70719 82.6972 1.87876L88.0303 7.2119C89.2019 8.38348 89.2019 10.283 88.0303 11.4545L60.7547 38.7302C59.4515 40.0333 59.6205 42.1924 61.1105 43.277L80.1244 57.1173C82.0758 58.5377 81.6362 61.5638 79.3613 62.3703L5.01036 88.7287C2.63069 89.5723 0.33675 87.2784 1.18036 84.8987L27.5383 10.5473C28.3447 8.27241 31.3709 7.8328 32.7913 9.78421L46.6321 28.7986Z" fill="#B5E1F1"/>
<path d="M5.01036 88.7287L4.67622 87.7862L5.01036 88.7287ZM80.1244 57.1173L79.5359 57.9258L80.1244 57.1173ZM79.3613 62.3703L79.6954 63.3128L79.3613 62.3703ZM61.1105 43.277L60.522 44.0855L61.1105 43.277ZM46.6321 28.7986L45.8236 29.3871L46.6321 28.7986ZM51.1789 29.1544L51.886 29.8615L79.1616 2.58587L78.4545 1.87876L77.7474 1.17166L50.4718 28.4473L51.1789 29.1544ZM82.6972 1.87876L81.9901 2.58587L87.3232 7.91901L88.0303 7.2119L88.7374 6.5048L83.4043 1.17165L82.6972 1.87876ZM88.0303 11.4545L87.3232 10.7474L60.0476 38.0231L60.7547 38.7302L61.4618 39.4373L88.7374 12.1616L88.0303 11.4545ZM61.1105 43.277L60.522 44.0855L79.5359 57.9258L80.1244 57.1173L80.7129 56.3088L61.699 42.4685L61.1105 43.277ZM79.3613 62.3703L79.0271 61.4278L4.67622 87.7862L5.01036 88.7287L5.34449 89.6712L79.6954 63.3128L79.3613 62.3703ZM1.18036 84.8987L2.12288 85.2329L28.4808 10.8815L27.5383 10.5473L26.5957 10.2132L0.23783 84.5646L1.18036 84.8987ZM32.7913 9.78421L31.9828 10.3727L45.8236 29.3871L46.6321 28.7986L47.4406 28.2101L33.5998 9.1957L32.7913 9.78421ZM27.5383 10.5473L28.4808 10.8815C29.0184 9.36486 31.0358 9.07177 31.9828 10.3727L32.7913 9.78421L33.5998 9.1957C31.7059 6.59382 27.671 7.17997 26.5957 10.2132L27.5383 10.5473ZM5.01036 88.7287L4.67622 87.7862C3.08977 88.3486 1.56048 86.8193 2.12288 85.2329L1.18036 84.8987L0.23783 84.5646C-0.88698 87.7375 2.17161 90.796 5.34449 89.6712L5.01036 88.7287ZM80.1244 57.1173L79.5359 57.9258C80.8368 58.8727 80.5437 60.8901 79.0271 61.4278L79.3613 62.3703L79.6954 63.3128C82.7286 62.2375 83.3148 58.2027 80.7129 56.3088L80.1244 57.1173ZM60.7547 38.7302L60.0476 38.0231C58.31 39.7606 58.5353 42.6394 60.522 44.0855L61.1105 43.277L61.699 42.4685C60.7056 41.7454 60.593 40.3061 61.4618 39.4373L60.7547 38.7302ZM88.0303 7.2119L87.3232 7.91901C88.1042 8.70006 88.1042 9.96639 87.3232 10.7474L88.0303 11.4545L88.7374 12.1616C90.2995 10.5996 90.2995 8.06689 88.7374 6.5048L88.0303 7.2119ZM78.4545 1.87876L79.1616 2.58587C79.9427 1.80482 81.209 1.80482 81.9901 2.58587L82.6972 1.87876L83.4043 1.17165C81.8422 -0.390441 79.3095 -0.390446 77.7474 1.17166L78.4545 1.87876ZM51.1789 29.1544L50.4718 28.4473C49.603 29.3161 48.1636 29.2034 47.4406 28.2101L46.6321 28.7986L45.8236 29.3871C47.2697 31.3738 50.1484 31.5991 51.886 29.8615L51.1789 29.1544Z" fill="#38ACDD"/>
</g>
<defs>
<filter id="filter0_d_2121_6187" x="0" y="0" width="93.909" height="93.9089" filterUnits="userSpaceOnUse" color-interpolation-filters="sRGB">
<feFlood flood-opacity="0" result="BackgroundImageFix"/>
<feColorMatrix in="SourceAlpha" type="matrix" values="0 0 0 0 0 0 0 0 0 0 0 0 0 0 0 0 0 0 127 0" result="hardAlpha"/>
<feOffset dx="4" dy="4"/>
<feComposite in2="hardAlpha" operator="out"/>
<feColorMatrix type="matrix" values="0 0 0 0 0.219608 0 0 0 0 0.67451 0 0 0 0 0.866667 0 0 0 1 0"/>
<feBlend mode="normal" in2="BackgroundImageFix" result="effect1_dropShadow_2121_6187"/>
<feBlend mode="normal" in="SourceGraphic" in2="effect1_dropShadow_2121_6187" result="shape"/>
</filter>
</defs>
</svg>
