<svg width="64" height="64" viewBox="0 0 64 64" fill="none" xmlns="http://www.w3.org/2000/svg">
<path d="M64 32C64 49.6731 49.6731 64 32 64C14.3269 64 0 49.6731 0 32C0 14.3269 14.3269 0 32 0C49.6731 0 64 14.3269 64 32Z" fill="#B5E1F1"/>
<path d="M27.2207 29.6289C27.2207 29.2349 27.143 28.8444 26.9922 28.4805C26.8414 28.1166 26.6203 27.7863 26.3418 27.5078C26.0633 27.2293 25.733 27.0082 25.3691 26.8574C25.0052 26.7067 24.6147 26.6289 24.2207 26.6289C23.8267 26.6289 23.4362 26.7067 23.0723 26.8574C22.7084 27.0082 22.3781 27.2293 22.0996 27.5078C21.8211 27.7863 21.6 28.1166 21.4492 28.4805C21.2985 28.8444 21.2207 29.2349 21.2207 29.6289C21.2207 30.1812 20.773 30.6289 20.2207 30.6289C19.6684 30.6289 19.2207 30.1812 19.2207 29.6289C19.2207 28.9724 19.3503 28.3224 19.6016 27.7158C19.8528 27.1092 20.2213 26.558 20.6855 26.0938C21.1498 25.6295 21.701 25.261 22.3076 25.0098C22.9142 24.7585 23.5642 24.6289 24.2207 24.6289C24.8772 24.6289 25.5272 24.7585 26.1338 25.0098C26.7404 25.261 27.2916 25.6295 27.7559 26.0938C28.2202 26.558 28.5886 27.1092 28.8398 27.7158C29.0911 28.3224 29.2207 28.9724 29.2207 29.6289C29.2207 30.1812 28.773 30.6289 28.2207 30.6289C27.6684 30.6289 27.2207 30.1812 27.2207 29.6289Z" fill="#001A72"/>
<path d="M42.7793 29.6289C42.7793 29.2349 42.7015 28.8444 42.5508 28.4805C42.4 28.1166 42.1789 27.7863 41.9004 27.5078C41.6219 27.2293 41.2916 27.0082 40.9277 26.8574C40.5638 26.7067 40.1733 26.6289 39.7793 26.6289C39.3853 26.6289 38.9948 26.7067 38.6309 26.8574C38.267 27.0082 37.9367 27.2293 37.6582 27.5078C37.3797 27.7863 37.1586 28.1166 37.0078 28.4805C36.857 28.8444 36.7793 29.2349 36.7793 29.6289C36.7793 30.1812 36.3316 30.6289 35.7793 30.6289C35.227 30.6289 34.7793 30.1812 34.7793 29.6289C34.7793 28.9724 34.9089 28.3224 35.1602 27.7158C35.4114 27.1092 35.7798 26.558 36.2441 26.0938C36.7084 25.6295 37.2596 25.261 37.8662 25.0098C38.4728 24.7585 39.1228 24.6289 39.7793 24.6289C40.4358 24.6289 41.0858 24.7585 41.6924 25.0098C42.299 25.261 42.8502 25.6295 43.3145 26.0938C43.7787 26.558 44.1472 27.1092 44.3984 27.7158C44.6497 28.3224 44.7793 28.9724 44.7793 29.6289C44.7793 30.1812 44.3316 30.6289 43.7793 30.6289C43.227 30.6289 42.7793 30.1812 42.7793 29.6289Z" fill="#001A72"/>
<path d="M43.8164 36.3711C44.3687 36.3711 44.8164 36.8188 44.8164 37.3711C44.8164 37.9234 44.3687 38.3711 43.8164 38.3711H20.1836C19.6313 38.3711 19.1836 37.9234 19.1836 37.3711C19.1836 36.8188 19.6313 36.3711 20.1836 36.3711H43.8164Z" fill="#001A72"/>
</svg>
