<svg width="254" height="250" viewBox="0 0 254 250" fill="none" xmlns="http://www.w3.org/2000/svg">
<g filter="url(#filter0_d_2121_6392)">
<path d="M152.418 138.293C152.612 140.126 154.398 141.352 156.178 140.875L193.437 130.891C195.037 130.462 196.682 131.412 197.111 133.012L199.063 140.298C199.492 141.898 198.542 143.543 196.942 143.972L159.683 153.955C157.903 154.432 156.969 156.387 157.718 158.071L167.264 179.564C168.244 181.77 166.35 184.171 163.977 183.732L86.4076 169.383C83.925 168.924 83.0853 165.79 85.0057 164.151L145.008 112.94C146.844 111.373 149.684 112.506 149.939 114.906L152.418 138.293Z" fill="#B5E1F1"/>
<path d="M86.4076 169.383L86.5895 168.4L86.4076 169.383ZM167.264 179.564L166.35 179.97L167.264 179.564ZM163.977 183.732L163.795 184.715L163.977 183.732ZM157.718 158.071L156.804 158.477L157.718 158.071ZM152.418 138.293L151.424 138.399L152.418 138.293ZM156.178 140.875L156.437 141.841L193.696 131.857L193.437 130.891L193.178 129.925L155.919 139.909L156.178 140.875ZM197.111 133.012L196.145 133.271L198.097 140.556L199.063 140.298L200.029 140.039L198.077 132.754L197.111 133.012ZM196.942 143.972L196.683 143.006L159.424 152.989L159.683 153.955L159.942 154.921L197.201 144.938L196.942 143.972ZM157.718 158.071L156.804 158.477L166.35 179.97L167.264 179.564L168.178 179.158L158.632 157.665L157.718 158.071ZM163.977 183.732L164.158 182.748L86.5895 168.4L86.4076 169.383L86.2257 170.367L163.795 184.715L163.977 183.732ZM85.0057 164.151L85.6549 164.912L145.657 113.701L145.008 112.94L144.359 112.18L84.3565 163.391L85.0057 164.151ZM149.939 114.906L148.944 115.011L151.424 138.399L152.418 138.293L153.413 138.188L150.933 114.8L149.939 114.906ZM145.008 112.94L145.657 113.701C146.881 112.656 148.775 113.411 148.944 115.011L149.939 114.906L150.933 114.8C150.594 111.6 146.807 110.09 144.359 112.18L145.008 112.94ZM86.4076 169.383L86.5895 168.4C84.9344 168.094 84.3746 166.005 85.6549 164.912L85.0057 164.151L84.3565 163.391C81.796 165.576 82.9155 169.754 86.2257 170.367L86.4076 169.383ZM167.264 179.564L166.35 179.97C167.003 181.44 165.741 183.041 164.158 182.748L163.977 183.732L163.795 184.715C166.959 185.3 169.484 182.099 168.178 179.158L167.264 179.564ZM159.683 153.955L159.424 152.989C157.05 153.625 155.806 156.231 156.804 158.477L157.718 158.071L158.632 157.665C158.133 156.542 158.755 155.239 159.942 154.921L159.683 153.955ZM199.063 140.298L198.097 140.556C198.383 141.623 197.75 142.72 196.683 143.006L196.942 143.972L197.201 144.938C199.335 144.366 200.601 142.173 200.029 140.039L199.063 140.298ZM193.437 130.891L193.696 131.857C194.763 131.571 195.86 132.204 196.145 133.271L197.111 133.012L198.077 132.754C197.505 130.62 195.312 129.353 193.178 129.925L193.437 130.891ZM156.178 140.875L155.919 139.909C154.732 140.227 153.542 139.409 153.413 138.188L152.418 138.293L151.424 138.399C151.683 140.842 154.063 142.477 156.437 141.841L156.178 140.875Z" fill="#38ACDD"/>
</g>
<g filter="url(#filter1_d_2121_6392)">
<path d="M91.5438 52.9984C92.9771 54.1569 95.1063 53.7613 96.0278 52.1653L115.315 18.7596C116.143 17.3247 117.978 16.833 119.413 17.6615L125.944 21.4326C127.379 22.261 127.871 24.0958 127.042 25.5307L107.756 58.9364C106.834 60.5324 107.556 62.5741 109.276 63.2361L131.224 71.6837C133.477 72.5506 133.835 75.5874 131.847 76.9552L66.8514 121.659C64.7711 123.09 61.9616 121.468 62.1606 118.951L68.3768 40.3108C68.567 37.9047 71.3763 36.6968 73.2534 38.2141L91.5438 52.9984Z" fill="#B5E1F1"/>
<path d="M66.8514 121.659L66.2847 120.835L66.8514 121.659ZM131.224 71.6837L130.865 72.6169L131.224 71.6837ZM131.847 76.9552L132.413 77.7792L131.847 76.9552ZM109.276 63.2361L108.917 64.1694L109.276 63.2361ZM91.5438 52.9984L90.9152 53.7761L91.5438 52.9984ZM96.0278 52.1653L96.8938 52.6653L116.181 19.2596L115.315 18.7596L114.449 18.2596L95.1618 51.6653L96.0278 52.1653ZM119.413 17.6615L118.913 18.5275L125.444 22.2986L125.944 21.4326L126.444 20.5665L119.913 16.7954L119.413 17.6615ZM127.042 25.5307L126.176 25.0307L106.89 58.4364L107.756 58.9364L108.622 59.4364L127.908 26.0307L127.042 25.5307ZM109.276 63.2361L108.917 64.1694L130.865 72.6169L131.224 71.6837L131.584 70.7504L109.635 62.3029L109.276 63.2361ZM131.847 76.9552L131.28 76.1313L66.2847 120.835L66.8514 121.659L67.4181 122.483L132.413 77.7792L131.847 76.9552ZM62.1606 118.951L63.1575 119.029L69.3737 40.3897L68.3768 40.3108L67.3799 40.232L61.1637 118.872L62.1606 118.951ZM73.2534 38.2141L72.6248 38.9918L90.9152 53.7761L91.5438 52.9984L92.1725 52.2207L73.882 37.4364L73.2534 38.2141ZM68.3768 40.3108L69.3737 40.3897C69.5005 38.7856 71.3733 37.9803 72.6248 38.9918L73.2534 38.2141L73.882 37.4364C71.3792 35.4134 67.6335 37.0239 67.3799 40.232L68.3768 40.3108ZM66.8514 121.659L66.2847 120.835C64.8978 121.789 63.0249 120.707 63.1575 119.029L62.1606 118.951L61.1637 118.872C60.8984 122.228 64.6444 124.391 67.4181 122.483L66.8514 121.659ZM131.224 71.6837L130.865 72.6169C132.367 73.1949 132.606 75.2194 131.28 76.1313L131.847 76.9552L132.413 77.7792C135.065 75.9554 134.587 71.9064 131.584 70.7504L131.224 71.6837ZM107.756 58.9364L106.89 58.4364C105.661 60.5644 106.624 63.2867 108.917 64.1694L109.276 63.2361L109.635 62.3029C108.489 61.8616 108.007 60.5004 108.622 59.4364L107.756 58.9364ZM125.944 21.4326L125.444 22.2986C126.401 22.8509 126.729 24.0741 126.176 25.0307L127.042 25.5307L127.908 26.0307C129.013 24.1175 128.358 21.6711 126.444 20.5665L125.944 21.4326ZM115.315 18.7596L116.181 19.2596C116.733 18.303 117.956 17.9752 118.913 18.5275L119.413 17.6615L119.913 16.7954C117.999 15.6909 115.553 16.3464 114.449 18.2596L115.315 18.7596ZM96.0278 52.1653L95.1618 51.6653C94.5474 52.7293 93.128 52.993 92.1725 52.2207L91.5438 52.9984L90.9152 53.7761C92.8262 55.3208 95.6652 54.7933 96.8938 52.6653L96.0278 52.1653Z" fill="#38ACDD"/>
</g>
<defs>
<filter id="filter0_d_2121_6392" x="82.9498" y="111.217" width="121.217" height="77.5679" filterUnits="userSpaceOnUse" color-interpolation-filters="sRGB">
<feFlood flood-opacity="0" result="BackgroundImageFix"/>
<feColorMatrix in="SourceAlpha" type="matrix" values="0 0 0 0 0 0 0 0 0 0 0 0 0 0 0 0 0 0 127 0" result="hardAlpha"/>
<feOffset dx="4" dy="4"/>
<feComposite in2="hardAlpha" operator="out"/>
<feColorMatrix type="matrix" values="0 0 0 0 0.219608 0 0 0 0 0.67451 0 0 0 0 0.866667 0 0 0 1 0"/>
<feBlend mode="normal" in2="BackgroundImageFix" result="effect1_dropShadow_2121_6392"/>
<feBlend mode="normal" in="SourceGraphic" in2="effect1_dropShadow_2121_6392" result="shape"/>
</filter>
<filter id="filter1_d_2121_6392" x="61.1503" y="16.2589" width="76.997" height="110.937" filterUnits="userSpaceOnUse" color-interpolation-filters="sRGB">
<feFlood flood-opacity="0" result="BackgroundImageFix"/>
<feColorMatrix in="SourceAlpha" type="matrix" values="0 0 0 0 0 0 0 0 0 0 0 0 0 0 0 0 0 0 127 0" result="hardAlpha"/>
<feOffset dx="4" dy="4"/>
<feComposite in2="hardAlpha" operator="out"/>
<feColorMatrix type="matrix" values="0 0 0 0 0.219608 0 0 0 0 0.67451 0 0 0 0 0.866667 0 0 0 1 0"/>
<feBlend mode="normal" in2="BackgroundImageFix" result="effect1_dropShadow_2121_6392"/>
<feBlend mode="normal" in="SourceGraphic" in2="effect1_dropShadow_2121_6392" result="shape"/>
</filter>
</defs>
</svg>
