<svg width="106" height="104" viewBox="0 0 106 104" fill="none" xmlns="http://www.w3.org/2000/svg">
<path d="M47.1865 13.7226C48.153 11.1107 51.847 11.1107 52.8135 13.7226L61.9287 38.3544C62.4351 39.723 63.5142 40.8021 64.8828 41.3085L89.5146 50.4238C92.1265 51.3902 92.1265 55.0842 89.5146 56.0507L64.8828 65.166C63.5142 65.6724 62.4351 66.7515 61.9287 68.1201L52.8135 92.7519C51.847 95.3637 48.153 95.3637 47.1865 92.7519L38.0713 68.1201C37.5649 66.7515 36.4858 65.6724 35.1172 65.166L10.4854 56.0507C7.8735 55.0842 7.87349 51.3902 10.4854 50.4238L35.1172 41.3085C36.4858 40.8021 37.5649 39.723 38.0713 38.3544L47.1865 13.7226Z" fill="#FFD61E" stroke="#FFD61E" stroke-width="2"/>
<path d="M52.9495 10.4854C53.9159 7.8735 57.6099 7.87349 58.5764 10.4854L67.6917 35.1172C68.1981 36.4858 69.2772 37.5649 70.6458 38.0713L95.2776 47.1865C97.8894 48.153 97.8894 51.847 95.2776 52.8135L70.6458 61.9287C69.2772 62.4351 68.1981 63.5142 67.6917 64.8828L58.5764 89.5146C57.6099 92.1265 53.9159 92.1265 52.9495 89.5146L43.8342 64.8828C43.3278 63.5142 42.2487 62.4351 40.8801 61.9287L16.2483 52.8135C13.6364 51.847 13.6364 48.153 16.2483 47.1865L40.8801 38.0713C42.2487 37.5649 43.3278 36.4858 43.8342 35.1172L52.9495 10.4854Z" fill="#FFFAE1" stroke="#FFD61E" stroke-width="2"/>
</svg>
