<?xml version="1.0" encoding="UTF-8" standalone="no"?>
<svg
   width="137"
   height="40"
   viewBox="0 0 137 40"
   fill="none"
   version="1.1"
   id="svg3"
   sodipodi:docname="logo_label.svg"
   inkscape:version="1.4 (e7c3feb1, 2024-10-09)"
   xmlns:inkscape="http://www.inkscape.org/namespaces/inkscape"
   xmlns:sodipodi="http://sodipodi.sourceforge.net/DTD/sodipodi-0.dtd"
   xmlns="http://www.w3.org/2000/svg"
   xmlns:svg="http://www.w3.org/2000/svg">
  <defs
     id="defs3" />
  <sodipodi:namedview
     id="namedview3"
     pagecolor="#ffffff"
     bordercolor="#000000"
     borderopacity="0.25"
     inkscape:showpageshadow="2"
     inkscape:pageopacity="0.0"
     inkscape:pagecheckerboard="0"
     inkscape:deskcolor="#d1d1d1"
     inkscape:zoom="14.707821"
     inkscape:cx="28.930186"
     inkscape:cy="33.009648"
     inkscape:window-width="1856"
     inkscape:window-height="1094"
     inkscape:window-x="635"
     inkscape:window-y="124"
     inkscape:window-maximized="0"
     inkscape:current-layer="svg3" />
  <g
     filter="url(#filter0_d_2299_3245)"
     id="g2-7"
     transform="translate(-2.4573711,2.6682186)"
     style="fill:#38acdd;fill-opacity:1">
    <path
       d="m 25.7251,7.76379 c 1.1044,1.5e-4 2,0.89552 2,2 v 6.94731 h 4.0654 c 1.1046,0 2,0.8954 2,2 0,1.1045 -0.8954,2 -2,2 h -6.0654 c -1.1046,0 -2,-0.8955 -2,-2 v -6.9473 h -1.5352 v 18.4727 c 0,1.1044 -0.8956,1.9998 -2,2 h -5.7627 c -1.1045,0 -1.9999,-0.8956 -2,-2 V 24.1993 H 8.20947 c -1.10443,0 -1.99978,-0.8956 -2,-2 0,-1.1045 0.89543,-2 2,-2 h 6.21773 c 1.1045,10e-5 2,0.8955 2,2 v 6.0372 h 1.7627 V 9.76379 c 0,-1.10457 0.8955,-2 2,-2 z"
       fill="#e1f3fa"
       id="path1-9"
       style="fill:#38acdd;fill-opacity:1" />
    <path
       d="m 25.7251,7.76379 c 1.1044,1.5e-4 2,0.89552 2,2 v 6.94731 h 4.0654 c 1.1046,0 2,0.8954 2,2 0,1.1045 -0.8954,2 -2,2 h -6.0654 c -1.1046,0 -2,-0.8955 -2,-2 v -6.9473 h -1.5352 v 18.4727 c 0,1.1044 -0.8956,1.9998 -2,2 h -5.7627 c -1.1045,0 -1.9999,-0.8956 -2,-2 V 24.1993 H 8.20947 c -1.10443,0 -1.99978,-0.8956 -2,-2 0,-1.1045 0.89543,-2 2,-2 h 6.21773 c 1.1045,10e-5 2,0.8955 2,2 v 6.0372 h 1.7627 V 9.76379 c 0,-1.10457 0.8955,-2 2,-2 z"
       stroke="#38acdd"
       stroke-linecap="round"
       stroke-linejoin="round"
       id="path2-3"
       style="fill:#38acdd;fill-opacity:1" />
  </g>
  <g
     filter="url(#filter0_d_2299_3245)"
     id="g2">
    <path
       d="M25.7251 7.76379C26.8295 7.76394 27.7251 8.65931 27.7251 9.76379V16.7111H31.7905C32.8951 16.7111 33.7905 17.6065 33.7905 18.7111C33.7905 19.8156 32.8951 20.7111 31.7905 20.7111H25.7251C24.6205 20.7111 23.7251 19.8156 23.7251 18.7111V11.7638H22.1899V30.2365C22.1899 31.3409 21.2943 32.2363 20.1899 32.2365H14.4272C13.3227 32.2365 12.4273 31.3409 12.4272 30.2365V24.1993H8.20947C7.10504 24.1993 6.20969 23.3037 6.20947 22.1993C6.20947 21.0948 7.1049 20.1993 8.20947 20.1993H14.4272C15.5317 20.1994 16.4272 21.0948 16.4272 22.1993V28.2365H18.1899V9.76379C18.1899 8.65922 19.0854 7.76379 20.1899 7.76379H25.7251Z"
       fill="#E1F3FA"
       id="path1" />
    <path
       d="M25.7251 7.76379C26.8295 7.76394 27.7251 8.65931 27.7251 9.76379V16.7111H31.7905C32.8951 16.7111 33.7905 17.6065 33.7905 18.7111C33.7905 19.8156 32.8951 20.7111 31.7905 20.7111H25.7251C24.6205 20.7111 23.7251 19.8156 23.7251 18.7111V11.7638H22.1899V30.2365C22.1899 31.3409 21.2943 32.2363 20.1899 32.2365H14.4272C13.3227 32.2365 12.4273 31.3409 12.4272 30.2365V24.1993H8.20947C7.10504 24.1993 6.20969 23.3037 6.20947 22.1993C6.20947 21.0948 7.1049 20.1993 8.20947 20.1993H14.4272C15.5317 20.1994 16.4272 21.0948 16.4272 22.1993V28.2365H18.1899V9.76379C18.1899 8.65922 19.0854 7.76379 20.1899 7.76379H25.7251Z"
       stroke="#38ACDD"
       stroke-linecap="round"
       stroke-linejoin="round"
       id="path2" />
  </g>
  <path
     d="M52.28 13.2C53.48 13.2 54.536 13.44 55.448 13.896C56.36 14.352 57.08 15 57.584 15.84C58.088 16.704 58.352 17.688 58.352 18.792C58.352 19.92 58.088 20.904 57.584 21.744C57.08 22.584 56.36 23.232 55.448 23.688C54.536 24.144 53.48 24.36 52.28 24.36H49.04V30H45.44V13.2H52.28ZM49.04 21.36H51.944C52.784 21.36 53.456 21.144 53.96 20.664C54.44 20.208 54.704 19.584 54.704 18.792C54.704 18 54.44 17.376 53.96 16.896C53.456 16.44 52.784 16.2 51.944 16.2H49.04V21.36ZM72.2017 17.664V30H69.2017L68.8897 28.512C68.4577 29.04 67.9537 29.424 67.3777 29.712C66.8017 30 66.0817 30.144 65.2657 30.144C63.8257 30.144 62.6497 29.712 61.7377 28.824C60.8257 27.936 60.3697 26.448 60.3697 24.36V17.664H63.7537V23.952C63.7537 25.08 63.9457 25.92 64.3297 26.496C64.7137 27.072 65.3377 27.336 66.1537 27.336C66.9937 27.336 67.6417 27.024 68.1217 26.4C68.5777 25.776 68.8177 24.888 68.8177 23.736V17.664H72.2017ZM75.0344 13.2H78.4184V30H75.0344V13.2ZM84.0166 25.896C84.0646 26.448 84.3286 26.88 84.8086 27.216C85.2886 27.552 85.8886 27.72 86.6566 27.72C87.3766 27.72 87.9286 27.624 88.3606 27.384C88.7686 27.144 88.9846 26.808 88.9846 26.376C88.9846 26.064 88.8886 25.824 88.6966 25.656C88.5046 25.512 88.2166 25.392 87.8806 25.32C87.5206 25.248 86.9446 25.152 86.1526 25.056C85.0486 24.912 84.1606 24.744 83.4406 24.504C82.7206 24.288 82.1446 23.928 81.7126 23.448C81.2806 22.968 81.0646 22.344 81.0646 21.528C81.0646 20.736 81.2806 20.04 81.7126 19.416C82.1446 18.792 82.7686 18.312 83.5846 17.976C84.3766 17.64 85.2886 17.472 86.3446 17.472C88.0246 17.496 89.3686 17.856 90.4006 18.552C91.4326 19.272 91.9846 20.232 92.0806 21.48H88.8646C88.8166 21.024 88.5526 20.64 88.1206 20.352C87.6886 20.064 87.1126 19.896 86.4406 19.896C85.7926 19.896 85.2646 20.016 84.8806 20.256C84.4966 20.496 84.3046 20.832 84.3046 21.216C84.3046 21.504 84.4006 21.72 84.6166 21.864C84.8086 22.008 85.0966 22.128 85.4326 22.176C85.7686 22.248 86.3206 22.32 87.1126 22.392C88.7686 22.584 90.0406 22.944 90.9286 23.472C91.8166 24 92.2726 24.888 92.2726 26.136C92.2726 26.952 92.0326 27.648 91.5526 28.248C91.0726 28.872 90.4246 29.328 89.5846 29.664C88.7446 30 87.7846 30.144 86.6806 30.144C84.9526 30.144 83.5606 29.784 82.5046 29.016C81.4246 28.248 80.8486 27.216 80.8006 25.896H84.0166ZM106.842 27.144V30H105.114C103.554 30 102.786 29.328 102.834 27.984C102.378 28.704 101.826 29.232 101.178 29.592C100.506 29.976 99.7136 30.144 98.8016 30.144C97.4096 30.144 96.3056 29.832 95.4656 29.208C94.6256 28.584 94.2176 27.672 94.2176 26.52C94.2176 25.224 94.6976 24.216 95.6576 23.496C96.6176 22.776 98.0336 22.416 99.8816 22.416H102.33V21.816C102.33 21.264 102.114 20.832 101.706 20.496C101.274 20.16 100.722 19.992 100.026 19.992C99.4016 19.992 98.8736 20.136 98.4896 20.4C98.0816 20.688 97.8416 21.048 97.7696 21.504H94.5056C94.6016 20.256 95.1776 19.272 96.1856 18.576C97.1936 17.88 98.5136 17.52 100.194 17.52C101.922 17.52 103.266 17.904 104.226 18.672C105.186 19.44 105.666 20.568 105.666 22.008V26.352C105.666 26.664 105.714 26.88 105.858 26.976C105.978 27.096 106.17 27.144 106.458 27.144H106.842ZM102.33 24.672H99.8576C99.1376 24.672 98.5856 24.816 98.2016 25.104C97.8176 25.392 97.6256 25.776 97.6256 26.28C97.6256 26.712 97.7696 27.072 98.1056 27.312C98.4416 27.576 98.8736 27.696 99.4496 27.696C100.314 27.696 101.01 27.456 101.538 26.952C102.042 26.448 102.306 25.776 102.33 24.912V24.672ZM116.143 17.664V20.736H114.799C113.839 20.736 113.119 21.024 112.687 21.6C112.231 22.176 112.015 22.968 112.015 23.952V30H108.631V17.664H111.703L112.015 19.512C112.375 18.912 112.831 18.456 113.383 18.144C113.911 17.832 114.655 17.664 115.567 17.664H116.143Z"
     fill="#001A72"
     id="path3" />
</svg>
