<svg width="229" height="116" viewBox="0 0 229 116" fill="none" xmlns="http://www.w3.org/2000/svg">
<g clip-path="url(#clip0_1_545)">
<path fill-rule="evenodd" clip-rule="evenodd" d="M26.0786 0.200195H228.4V89.9233L202.42 115.8H0.199951V26.0789L26.0786 0.200195ZM27.3213 3.2002L5.32127 25.2002H201.18L223.268 3.2002H27.3213ZM225.4 5.31142L203.3 27.3234V110.689L225.4 88.6771V5.31142ZM3.19995 112.8V28.2002H200.3V112.8H3.19995Z" fill="#001A72"/>
<path d="M38.6 61.6001C38.6 64.6001 36.6 67.2001 31.8 67.2001C29.7 67.2001 28 66.7001 26.5 66.1001V61.9001C28.1 62.7001 30 63.2001 31.7 63.2001C33.3 63.2001 34.1 62.7001 34.1 61.8001C34.1 59.0001 26.5 59.9001 26.5 54.2001C26.5 50.7001 29.3 48.6001 33.2 48.6001C34.8 48.6001 36.3 49.0001 37.9 49.9001V54.2001C35.8 52.9001 34.3 52.5001 33.1 52.5001C31.7 52.5001 30.9 53.0001 30.9 53.9001C30.9 56.6001 38.6 55.6001 38.6 61.6001Z" fill="#001A72"/>
<path d="M42.3999 57.9001C42.3999 52.8001 46.5999 48.6001 51.6999 48.6001C56.7999 48.6001 60.9999 52.8001 60.9999 57.9001C60.9999 63.0001 56.7999 67.2001 51.6999 67.2001C46.5999 67.2001 42.3999 63.0001 42.3999 57.9001ZM56.3999 57.9001C56.3999 55.1001 54.2999 53.0001 51.6999 53.0001C49.0999 53.0001 46.9999 55.1001 46.9999 57.9001C46.9999 60.7001 49.0999 62.8001 51.6999 62.8001C54.2999 62.8001 56.3999 60.7001 56.3999 57.9001Z" fill="#001A72"/>
<path d="M71.4 47.6002V49.0002H77.3L75.3 53.2002H71.5V66.8002H67V53.2002H64V49.0002H67V47.3002C67 41.9002 69.8 39.2002 74.2 39.2002C75.3 39.2002 76.3 39.4002 77.2 39.6002V43.8002C76.4 43.5002 75.5 43.4002 74.6 43.4002C72.4 43.4002 71.4 44.9002 71.4 47.6002Z" fill="#001A72"/>
<path d="M86.2999 53.2004V60.3004C86.2999 62.2004 87.3999 63.0004 89.0999 63.0004C90.1999 63.0004 91.2999 62.7004 92.1999 62.1004V66.4004C90.9999 66.9004 89.8999 67.2004 88.2999 67.2004C84.3999 67.2004 81.9999 65.1004 81.9999 60.8004V53.2004H79.3999V49.0004H81.9999V44.5004L86.2999 43.4004V49.0004H92.1999V53.2004H86.2999Z" fill="#001A72"/>
<path d="M123.3 49L117.6 66.8H113.3L109.4 54.6L105.4 66.8H101L95.2 49H100.1L103.3 60.9L107.1 49H111.4L115.2 60.9L118.4 49H123.3Z" fill="#001A72"/>
<path d="M125.6 57.9001C125.6 52.8001 129.3 48.6001 134.4 48.6001C136.4 48.6001 138 49.2001 139.2 50.2001V49.0001H143.5V66.8001H139.3V65.4001C138.1 66.5001 136.4 67.2001 134.3 67.2001C129.3 67.2001 125.6 63.0001 125.6 57.9001ZM139.5 57.9001C139.5 55.1001 137.4 53.0001 134.8 53.0001C132.2 53.0001 130.1 55.1001 130.1 57.9001C130.1 60.7001 132.2 62.8001 134.8 62.8001C137.4 62.8001 139.5 60.7001 139.5 57.9001Z" fill="#001A72"/>
<path d="M149.5 49.0002H153.7V51.5002C155 49.1002 157.4 48.7002 159.5 48.7002V53.8002C156.5 53.0002 153.8 54.7002 153.8 58.5002V66.8002H149.5V49.0002Z" fill="#001A72"/>
<path d="M173.1 63.0001C174.8 63.0001 176.8 62.7001 178.8 61.9001L176.6 66.4001C175.6 66.8001 174.1 67.2001 172.3 67.2001C166 67.2001 162.2 63.3001 162.2 57.9001C162.2 52.8001 166 48.6001 171.5 48.6001C175.2 48.6001 178.2 50.5001 179.4 52.9001V59.3001H166.8C167.4 61.6001 169.5 63.0001 173.1 63.0001ZM166.8 56.0001H176.1C175.5 53.9001 173.7 52.6001 171.4 52.6001C169.1 52.6001 167.4 54.0001 166.8 56.0001Z" fill="#001A72"/>
<path d="M51.4 81.8004V93.5004H47.1V82.5004C47.1 80.6004 45.7 79.5004 44.3 79.5004C42.8 79.5004 41.5 80.6004 41.5 82.5004V93.5004H37V82.5004C37 80.6004 35.6 79.5004 34.2 79.5004C32.7 79.5004 31.4 80.6004 31.4 82.5004V93.5004H27V75.8004H31.2V77.1004C32.5 75.8004 33.8 75.4004 35.5 75.4004C37.4 75.4004 39 76.2004 40.1 77.7004C41.6 76.1004 43.4 75.4004 45.5 75.4004C48.8 75.4004 51.4 78.1004 51.4 81.8004Z" fill="#001A72"/>
<path d="M55.8999 84.7004C55.8999 79.6004 59.5999 75.4004 64.6999 75.4004C66.6999 75.4004 68.2999 76.0004 69.4999 77.0004V75.8004H73.7999V93.6004H69.5999V92.2004C68.3999 93.3004 66.6999 94.0004 64.5999 94.0004C59.6999 93.9004 55.8999 89.8004 55.8999 84.7004ZM69.8999 84.7004C69.8999 81.9004 67.7999 79.8004 65.1999 79.8004C62.5999 79.8004 60.4999 81.9004 60.4999 84.7004C60.4999 87.5004 62.5999 89.6004 65.1999 89.6004C67.7999 89.6004 69.8999 87.5004 69.8999 84.7004Z" fill="#001A72"/>
<path d="M79.7 75.8004H83.9V77.1004C85.2 75.8004 86.9 75.4004 88.6 75.4004C92.3 75.4004 95.3 78.2004 95.3 82.0004V93.5004H91V83.0004C91 81.1004 89.5 79.6004 87.6 79.6004C85.7 79.6004 84.2 81.1004 84.2 83.0004V93.6004H79.9V75.8004H79.7Z" fill="#001A72"/>
<path d="M112.6 88.4004C112.6 91.4004 110.6 94.0004 105.8 94.0004C103.7 94.0004 102 93.5004 100.5 92.9004V88.7004C102.1 89.5004 104 90.0004 105.7 90.0004C107.3 90.0004 108.1 89.5004 108.1 88.6004C108.1 85.8004 100.5 86.7004 100.5 81.0004C100.5 77.5004 103.3 75.4004 107.2 75.4004C108.8 75.4004 110.3 75.8004 111.9 76.7004V81.0004C109.8 79.7004 108.3 79.3004 107.1 79.3004C105.7 79.3004 104.9 79.8004 104.9 80.7004C104.8 83.4004 112.6 82.3004 112.6 88.4004Z" fill="#001A72"/>
<path d="M121.9 75.8003V93.6003H117.6V75.8003H121.9Z" fill="#001A72"/>
<path d="M126.4 84.7004C126.4 79.6004 130.6 75.4004 135.7 75.4004C140.8 75.4004 145 79.6004 145 84.7004C145 89.8004 140.8 94.0004 135.7 94.0004C130.6 94.0004 126.4 89.8004 126.4 84.7004ZM140.4 84.7004C140.4 81.9004 138.3 79.8004 135.7 79.8004C133.1 79.8004 131 81.9004 131 84.7004C131 87.5004 133.1 89.6004 135.7 89.6004C138.3 89.6004 140.4 87.5004 140.4 84.7004Z" fill="#001A72"/>
<path d="M149.5 75.8004H153.7V77.1004C155 75.8004 156.7 75.4004 158.4 75.4004C162.1 75.4004 165.1 78.2004 165.1 82.0004V93.5004H160.8V83.0004C160.8 81.1004 159.3 79.6004 157.4 79.6004C155.5 79.6004 154 81.1004 154 83.0004V93.6004H149.7V75.8004H149.5Z" fill="#001A72"/>
<path d="M173.5 88.7002V89.4002H172V93.6002H171.2V89.4002H169.7V88.7002H173.5Z" fill="#001A72"/>
<path d="M175.2 88.7002L176.8 92.6002L178.3 88.7002H179.3V93.6002H178.5V90.0002L177 93.6002H176.3L174.8 90.0002V93.6002H174V88.7002H175.2Z" fill="#001A72"/>
</g>
<defs>
<clipPath id="clip0_1_545">
<rect width="229" height="116" fill="white"/>
</clipPath>
</defs>
</svg>
