<svg width="343" height="523" viewBox="0 0 343 523" fill="none" xmlns="http://www.w3.org/2000/svg">
<g clip-path="url(#clip0_2336_10306)">
<g clip-path="url(#clip1_2336_10306)">
<rect width="343" height="523" rx="4" fill="#FBFEFF"/>
<g clip-path="url(#clip2_2336_10306)">
<line x1="588.943" y1="355.635" x2="-178.933" y2="355.635" stroke="#E1F3FA" stroke-width="2.46114"/>
<line x1="58.202" y1="5.95653e-08" x2="58.202" y2="526" stroke="#E1F3FA" stroke-width="2.46114"/>
<line x1="588.943" y1="237.5" x2="-178.933" y2="237.5" stroke="#E1F3FA" stroke-width="2.46114"/>
<line x1="588.943" y1="119.365" x2="-178.933" y2="119.365" stroke="#E1F3FA" stroke-width="2.46114"/>
<line x1="295.202" y1="5.95653e-08" x2="295.202" y2="526" stroke="#E1F3FA" stroke-width="2.46114"/>
<line x1="588.943" y1="473.769" x2="-178.933" y2="473.769" stroke="#E1F3FA" stroke-width="2.46114"/>
<line x1="588.943" y1="60.298" x2="-178.933" y2="60.2979" stroke="#E1F3FA" stroke-width="2.46114"/>
<line x1="235.769" y1="5.37899e-08" x2="235.769" y2="462.694" stroke="#E1F3FA" stroke-width="2.46114"/>
<line x1="529.875" y1="414.702" x2="-178.933" y2="414.702" stroke="#E1F3FA" stroke-width="2.46114"/>
<line x1="117.202" y1="5.95653e-08" x2="117.202" y2="526" stroke="#E1F3FA" stroke-width="2.46114"/>
<line x1="588.943" y1="296.567" x2="-178.933" y2="296.567" stroke="#E1F3FA" stroke-width="2.46114"/>
<line x1="-0.499655" y1="5.37899e-08" x2="-0.499675" y2="475" stroke="#E1F3FA" stroke-width="2.46114"/>
<line x1="588.943" y1="178.433" x2="-178.933" y2="178.433" stroke="#E1F3FA" stroke-width="2.46114"/>
<line x1="236.202" y1="5.95653e-08" x2="236.202" y2="526" stroke="#E1F3FA" stroke-width="2.46114"/>
<line x1="588.943" y1="414.702" x2="-178.933" y2="414.702" stroke="#E1F3FA" stroke-width="2.46114"/>
<line x1="176.202" y1="5.95653e-08" x2="176.202" y2="526" stroke="#E1F3FA" stroke-width="2.46114"/>
</g>
</g>
</g>
<defs>
<clipPath id="clip0_2336_10306">
<rect width="343" height="523" rx="4" fill="white"/>
</clipPath>
<clipPath id="clip1_2336_10306">
<rect width="343" height="523" rx="4" fill="white"/>
</clipPath>
<clipPath id="clip2_2336_10306">
<rect width="768" height="523" fill="white" transform="translate(-179)"/>
</clipPath>
</defs>
</svg>
